<svg id="Layer_1" data-name="Layer 1" xmlns="http://www.w3.org/2000/svg" width="128" height="128" viewBox="0 0 128 128">
  <title>xwt</title>
  <g>
    <rect x="8" y="8" width="112" height="112" transform="matrix(0.98834, 0.15229, -0.15229, 0.98834, 10.49335, -9.00027)"/>
    <rect x="8.20301" y="61.57312" width="50" height="50" transform="translate(13.57186 -4.04676) rotate(8.75988)" style="fill: #fff"/>
    <rect x="69.79699" y="16.42688" width="50" height="50" transform="translate(7.41484 -13.95377) rotate(8.75988)" style="fill: #fff"/>
    <rect x="61.57312" y="69.79699" width="50" height="50" transform="translate(15.44686 -12.07877) rotate(8.75988)" style="fill: #fff"/>
    <path d="M46.71,106.002,35.9502,104.34473l-1.65284-4.207c-.87256-2.28125-1.72265-4.70508-2.25732-6.64161a60.94738,60.94738,0,0,1-4.19824,5.64649L24.999,102.65723l-10.5205-1.6211L28.02881,85.85254,20.001,67.73535l10.76025,1.6582,1.36523,3.52833a59.51847,59.51847,0,0,1,2.26416,6.59277c1.03711-1.64453,2.67383-3.68555,4.1919-5.59766l2.36475-2.95312L51.46777,72.585,38.3877,87.25391Z"/>
    <path d="M110.042,35.17676l-9.33105-1.4375L96.82812,58.93164,87.5918,57.50879l3.88281-25.19336-9.332-1.4375,1.23535-8.01855,27.89941,4.29882Z"/>
    <path d="M109.42969,81.51562l-13.127,32.12793-8.55957-1.31835-.415-7.4795c-.30664-5.3164-.34863-11.71386-.166-14.17382-.56445,2.40039-2.53125,8.48828-4.42481,13.46582l-2.64648,7.00781-8.46387-1.30371-2.8457-34.58985,9.56445,1.47364.04883,5.71582c.03809,4.83593.05078,10.79-.22461,14.79687.98535-3.84961,3.02149-9.4375,4.71289-14.05664l2.01367-5.44629,8.5127,1.31153.28027,5.7998c.22266,4.91406.48145,10.85644.26172,14.82324.94531-3.90332,2.749-9.57812,4.24121-14.17773l1.76856-5.43555Z"/>
  </g>
</svg>
